<svg width="114" height="160" viewBox="0 0 114 160" fill="none" xmlns="http://www.w3.org/2000/svg">
<path d="M56.202 78H84.8035L71.1113 107.762H42.5098L56.202 78Z" fill="#E3E3E1" stroke="#B3B3B3"/>
<rect x="70.707" y="107.762" width="28.1958" height="50.9091" fill="#E3E3E3" stroke="#727272"/>
<path d="M84.3992 78H113.001L99.3085 107.762H70.707L84.3992 78Z" fill="#EFEFEF" stroke="#727272"/>
<path d="M2 77.5H1.22453L1.54457 78.2064L15.0295 107.969L15.1626 108.262H15.4849H44.2937H45.0692L44.7491 107.556L31.2642 77.7936L31.1311 77.5H30.8088H2Z" fill="#EFEFEF" stroke="#727272"/>
<path fill-rule="evenodd" clip-rule="evenodd" d="M37.5552 13.4102C40.0841 10.882 43.4328 9.34021 46.9979 9.06245C50.563 8.78468 54.1101 9.78925 57.0002 11.8952C60.0533 9.68622 63.8257 8.70694 67.5678 9.15198C71.3098 9.59702 74.7474 11.4338 77.1972 14.2972C79.647 17.1606 80.9298 20.841 80.7904 24.6068C80.6511 28.3726 79.0999 31.9481 76.4452 34.6227L62.3027 48.7652C60.8962 50.1712 58.9889 50.9611 57.0002 50.9611C55.0114 50.9611 53.1041 50.1712 51.6977 48.7652L37.5552 34.6252C34.7423 31.8121 33.1621 27.997 33.1621 24.0189C33.1621 20.0408 34.7423 16.2232 37.5552 13.4102Z" fill="url(#paint0_linear_361_4249)"/>
<rect x="15" y="107.762" width="56.3916" height="50.9091" fill="white" stroke="#727272"/>
<defs>
<linearGradient id="paint0_linear_361_4249" x1="56.9814" y1="9.01709" x2="56.9814" y2="50.9611" gradientUnits="userSpaceOnUse">
<stop stop-color="#FF8600"/>
<stop offset="1" stop-color="#F99F4F"/>
</linearGradient>
</defs>
</svg>
