<svg width="20" height="16" viewBox="0 0 20 16" fill="none" xmlns="http://www.w3.org/2000/svg">
<path id="Vector" d="M19.6152 3.26586C19.8685 2.99435 20.0063 2.63524 19.9998 2.26418C19.9932 1.89313 19.8428 1.5391 19.5801 1.27668C19.3174 1.01426 18.963 0.863948 18.5916 0.857401C18.2202 0.850854 17.8607 0.988589 17.5889 1.24158L7.13264 11.6876L2.41105 6.97067C2.13927 6.71767 1.77981 6.57993 1.40839 6.58648C1.03697 6.59303 0.68259 6.74335 0.419915 7.00576C0.15724 7.26818 0.00677665 7.62221 0.000223362 7.99326C-0.00632993 8.36432 0.131538 8.72343 0.384784 8.99494L6.11951 14.724C6.38832 14.9922 6.75271 15.1429 7.13264 15.1429C7.51257 15.1429 7.87696 14.9922 8.14577 14.724L19.6152 3.26586Z" fill="#4563CD"/>
</svg>
