<svg width="15" height="14" viewBox="0 0 15 14" fill="none" xmlns="http://www.w3.org/2000/svg">
<path d="M14.781 12.8044C14.8507 12.8695 14.906 12.9467 14.9437 13.0316C14.9814 13.1166 15.0008 13.2077 15.0008 13.2996C15.0008 13.3916 14.9814 13.4827 14.9437 13.5677C14.906 13.6526 14.8507 13.7298 14.781 13.7949C14.7114 13.8599 14.6286 13.9115 14.5376 13.9467C14.4465 13.9819 14.349 14 14.2504 14C14.1519 14 14.0543 13.9819 13.9632 13.9467C13.8722 13.9115 13.7895 13.8599 13.7198 13.7949L7.50042 7.98957L1.28104 13.7949C1.14031 13.9262 0.94944 14 0.750417 14C0.551394 14 0.360523 13.9262 0.219792 13.7949C0.0790615 13.6635 3.92322e-09 13.4854 0 13.2996C-3.92322e-09 13.1139 0.0790615 12.9358 0.219792 12.8044L6.4401 7L0.219792 1.19557C0.0790615 1.06423 -1.48284e-09 0.886095 0 0.70035C1.48284e-09 0.514606 0.0790615 0.336469 0.219792 0.205128C0.360523 0.0737866 0.551394 1.3839e-09 0.750417 0C0.94944 -1.3839e-09 1.14031 0.0737866 1.28104 0.205128L7.50042 6.01043L13.7198 0.205128C13.8605 0.0737866 14.0514 -3.66147e-09 14.2504 0C14.4494 3.66147e-09 14.6403 0.0737866 14.781 0.205128C14.9218 0.336469 15.0008 0.514606 15.0008 0.70035C15.0008 0.886095 14.9218 1.06423 14.781 1.19557L8.56073 7L14.781 12.8044Z" fill="black"/>
</svg>
