<svg width="13" height="12" viewBox="0 0 13 12" fill="none" xmlns="http://www.w3.org/2000/svg">
<path id="Vector" d="M12.6695 10.9752C12.7292 11.031 12.7766 11.0971 12.8089 11.17C12.8412 11.2428 12.8579 11.3209 12.8579 11.3997C12.8579 11.4785 12.8412 11.5566 12.8089 11.6294C12.7766 11.7023 12.7292 11.7684 12.6695 11.8242C12.6097 11.8799 12.5388 11.9241 12.4608 11.9543C12.3828 11.9845 12.2991 12 12.2146 12C12.1302 12 12.0465 11.9845 11.9685 11.9543C11.8905 11.9241 11.8195 11.8799 11.7598 11.8242L6.42893 6.8482L1.09804 11.8242C0.97741 11.9368 0.813806 12 0.643215 12C0.472623 12 0.309019 11.9368 0.188393 11.8242C0.067767 11.7116 3.36276e-09 11.5589 0 11.3997C-3.36276e-09 11.2405 0.067767 11.0878 0.188393 10.9752L5.52009 6L0.188393 1.02478C0.067767 0.912198 -1.271e-09 0.75951 0 0.6003C1.271e-09 0.441091 0.067767 0.288402 0.188393 0.175824C0.309019 0.0632457 0.472623 1.1862e-09 0.643215 0C0.813806 -1.1862e-09 0.97741 0.0632457 1.09804 0.175824L6.42893 5.1518L11.7598 0.175824C11.8804 0.0632457 12.0441 -3.1384e-09 12.2146 0C12.3852 3.1384e-09 12.5488 0.0632457 12.6695 0.175824C12.7901 0.288402 12.8579 0.441091 12.8579 0.6003C12.8579 0.75951 12.7901 0.912198 12.6695 1.02478L7.33777 6L12.6695 10.9752Z" fill="#252525"/>
</svg>
