<svg width="96" height="96" viewBox="0 0 96 96" fill="none" xmlns="http://www.w3.org/2000/svg">
<g id="Group">
<path id="Vector" d="M48 93C53.9106 93.0076 59.7644 91.8471 65.2251 89.5852C70.6858 87.3232 75.6456 84.0044 79.8195 79.8195C84.0044 75.6456 87.3232 70.6858 89.5852 65.2251C91.8471 59.7644 93.0076 53.9106 93 48C93.0075 42.0894 91.8469 36.2356 89.585 30.775C87.3231 25.3143 84.0043 20.3545 79.8195 16.1805C75.6456 11.9956 70.6858 8.67678 65.2251 6.41483C59.7644 4.15287 53.9106 2.99238 48 3.00004C42.0894 2.9925 36.2356 4.15305 30.775 6.415C25.3143 8.67695 20.3545 11.9957 16.1805 16.1805C11.9957 20.3545 8.67695 25.3143 6.415 30.775C4.15305 36.2356 2.9925 42.0894 3.00004 48C2.99238 53.9106 4.15287 59.7644 6.41483 65.2251C8.67678 70.6858 11.9956 75.6456 16.1805 79.8195C20.3545 84.0043 25.3143 87.3231 30.775 89.585C36.2356 91.8469 42.0894 93.0075 48 93Z" fill="#E5EBFF" stroke="#4563CD" stroke-width="6" stroke-linejoin="round"/>
<g id="Vector_2">
<path d="M30 47.9999L43.5 61.4999L70.5 34.4999" fill="#E5EBFF"/>
<path d="M30 47.9999L43.5 61.4999L70.5 34.4999" stroke="#4563CD" stroke-width="6" stroke-linecap="round" stroke-linejoin="round"/>
</g>
</g>
</svg>
