<svg width="17" height="17" viewBox="0 0 17 17" fill="none" xmlns="http://www.w3.org/2000/svg">
<path d="M15.7297 0.770956C15.4853 0.526535 15.1952 0.332648 14.8759 0.200366C14.5566 0.0680848 14.2143 0 13.8687 0C13.523 0 13.1808 0.0680848 12.8615 0.200366C12.5421 0.332648 12.252 0.526535 12.0076 0.770956L1.83948 10.9405C1.5909 11.1892 1.40355 11.4924 1.29223 11.826L0.0354832 15.5976C-0.00500991 15.7187 -0.0109753 15.8487 0.0182556 15.973C0.0474865 16.0973 0.110758 16.211 0.20098 16.3013C0.291202 16.3917 0.404807 16.4552 0.529063 16.4846C0.65332 16.514 0.783316 16.5083 0.904483 16.468L4.67611 15.2098C5.01023 15.0998 5.31273 14.9115 5.56161 14.6626L15.7297 4.49583C15.9742 4.25145 16.168 3.96131 16.3003 3.64198C16.4326 3.32266 16.5007 2.98041 16.5007 2.63477C16.5007 2.28913 16.4326 1.94688 16.3003 1.62755C16.168 1.30823 15.9742 1.01809 15.7297 0.773706V0.770956ZM12.9797 1.74446C13.0965 1.62772 13.2351 1.53512 13.3876 1.47194C13.5401 1.40876 13.7036 1.37625 13.8687 1.37625C14.0338 1.37625 14.1972 1.40876 14.3498 1.47194C14.5023 1.53512 14.6409 1.62772 14.7576 1.74446C14.8743 1.86119 14.9669 1.99978 15.0301 2.1523C15.0933 2.30483 15.1258 2.4683 15.1258 2.63339C15.1258 2.79848 15.0933 2.96196 15.0301 3.11448C14.9669 3.26701 14.8743 3.40559 14.7576 3.52233L13.7497 4.53021L11.9719 2.75233L12.9811 1.74446H12.9797ZM10.9997 3.72446L12.7762 5.50233L4.58948 13.6891C4.49185 13.7871 4.37275 13.861 4.24161 13.905L1.77486 14.7272L2.59711 12.2605C2.64054 12.129 2.71398 12.0094 2.81161 11.9112L10.9997 3.72446Z" fill="#4563CD"/>
</svg>
