<svg width="16" height="22" viewBox="0 0 16 22" fill="none" xmlns="http://www.w3.org/2000/svg">
<path id="Vector" d="M14.1429 0H1.57143C1.15466 0 0.754961 0.165561 0.460261 0.460261C0.165561 0.754961 0 1.15466 0 1.57143V4.71429C0 5.13105 0.165561 5.53075 0.460261 5.82545C0.754961 6.12015 1.15466 6.28571 1.57143 6.28571V20.4286C1.57143 20.8453 1.73699 21.245 2.03169 21.5397C2.32639 21.8344 2.72609 22 3.14286 22H12.5714C12.9882 22 13.3879 21.8344 13.6826 21.5397C13.9773 21.245 14.1429 20.8453 14.1429 20.4286V6.28571C14.5596 6.28571 14.9593 6.12015 15.254 5.82545C15.5487 5.53075 15.7143 5.13105 15.7143 4.71429V1.57143C15.7143 1.15466 15.5487 0.754961 15.254 0.460261C14.9593 0.165561 14.5596 0 14.1429 0ZM3.14286 9.42857H5.5V17.2857H3.14286V9.42857ZM12.5714 20.4286H3.14286V18.8571H7.07143V7.85714H3.14286V6.28571H12.5714V20.4286ZM1.57143 4.71429V1.57143H14.1429V4.71429H1.57143Z" fill="#727272"/>
</svg>
