<svg width="16" height="16" viewBox="0 0 16 16" fill="none" xmlns="http://www.w3.org/2000/svg">
<path id="Vector" fill-rule="evenodd" clip-rule="evenodd" d="M11.9361 10.754C12.9752 9.41428 13.465 7.72902 13.3057 6.04104C13.1464 4.35306 12.35 2.78917 11.0786 1.66753C9.80711 0.545891 8.15612 -0.0492471 6.46146 0.00319299C4.76679 0.0556331 3.15575 0.751712 1.95609 1.94982C0.75539 3.14876 0.057035 4.76042 0.00334179 6.45637C-0.0503514 8.15233 0.544658 9.80494 1.66712 11.0774C2.78958 12.3499 4.35501 13.1465 6.0444 13.3049C7.7338 13.4633 9.42002 12.9715 10.7594 11.9298L10.7953 11.9673L14.3303 15.5032C14.4077 15.5806 14.4996 15.642 14.6008 15.6839C14.7019 15.7258 14.8103 15.7474 14.9198 15.7474C15.0293 15.7474 15.1378 15.7258 15.2389 15.6839C15.3401 15.642 15.432 15.5806 15.5094 15.5032C15.5869 15.4257 15.6483 15.3338 15.6902 15.2327C15.7321 15.1315 15.7536 15.0231 15.7536 14.9136C15.7536 14.8041 15.7321 14.6957 15.6902 14.5945C15.6483 14.4933 15.5869 14.4014 15.5094 14.324L11.9736 10.789C11.9614 10.777 11.9489 10.7653 11.9361 10.754ZM10.2061 3.12899C10.6766 3.59189 11.0508 4.14336 11.3071 4.7516C11.5634 5.35984 11.6967 6.01281 11.6994 6.67284C11.7021 7.33287 11.5741 7.9869 11.3228 8.59721C11.0714 9.20751 10.7017 9.76201 10.235 10.2287C9.76829 10.6954 9.21378 11.0651 8.60348 11.3165C7.99317 11.5678 7.33914 11.6958 6.67911 11.6932C6.01908 11.6905 5.36611 11.5571 4.75787 11.3008C4.14963 11.0445 3.59816 10.6703 3.13526 10.1998C2.21019 9.25956 1.69414 7.99186 1.69951 6.67284C1.70488 5.35382 2.23124 4.09036 3.16394 3.15766C4.09663 2.22497 5.36009 1.69861 6.67911 1.69324C7.99813 1.68787 9.26583 2.20392 10.2061 3.12899Z" fill="#252525"/>
</svg>
