<svg width="30" height="30" viewBox="0 0 30 30" fill="none" xmlns="http://www.w3.org/2000/svg">
<path id="Vector" d="M25.4999 4.36508C24.1247 2.97597 22.4867 1.87459 20.6814 1.12516C18.8761 0.37574 16.9396 -0.00672015 14.985 8.93542e-05C6.79498 8.93542e-05 0.12 6.67507 0.12 14.865C0.12 17.49 0.809998 20.04 2.09999 22.29L0 30L7.87498 27.93C10.05 29.115 12.495 29.745 14.985 29.745C23.1749 29.745 29.8499 23.07 29.8499 14.88C29.8499 10.9051 28.3049 7.17007 25.4999 4.36508ZM14.985 27.225C12.765 27.225 10.59 26.625 8.68497 25.5L8.23497 25.23L3.55499 26.46L4.79999 21.9L4.49999 21.435C3.26661 19.4655 2.6117 17.1889 2.60999 14.865C2.60999 8.05506 8.15997 2.50508 14.97 2.50508C18.2699 2.50508 21.3749 3.79508 23.6999 6.13507C24.8511 7.28101 25.7635 8.64406 26.384 10.1452C27.0046 11.6463 27.321 13.2557 27.3149 14.88C27.3449 21.69 21.7949 27.225 14.985 27.225ZM21.7649 17.985C21.3899 17.805 19.5599 16.905 19.2299 16.77C18.8849 16.65 18.6449 16.59 18.3899 16.95C18.1349 17.325 17.4299 18.165 17.2199 18.405C17.0099 18.66 16.7849 18.69 16.4099 18.495C16.035 18.315 14.835 17.91 13.425 16.65C12.315 15.66 11.58 14.445 11.355 14.07C11.145 13.695 11.325 13.5 11.52 13.305C11.685 13.14 11.895 12.8701 12.075 12.6601C12.255 12.4501 12.33 12.2851 12.45 12.0451C12.57 11.7901 12.51 11.5801 12.42 11.4001C12.33 11.2201 11.58 9.39006 11.28 8.64006C10.98 7.92007 10.665 8.01007 10.44 7.99507H9.71997C9.46497 7.99507 9.07497 8.08507 8.72997 8.46006C8.39997 8.83506 7.43998 9.73506 7.43998 11.5651C7.43998 13.3951 8.77497 15.165 8.95497 15.405C9.13497 15.66 11.58 19.41 15.3 21.015C16.185 21.405 16.8749 21.63 17.4149 21.795C18.2999 22.08 19.1099 22.035 19.7549 21.945C20.4749 21.84 21.9599 21.045 22.2599 20.175C22.5749 19.305 22.5749 18.57 22.4699 18.405C22.3649 18.24 22.1399 18.165 21.7649 17.985Z" fill="#60D669"/>
</svg>
